<svg width="113" height="52" viewBox="0 0 113 52" fill="none" xmlns="http://www.w3.org/2000/svg">
<path d="M2.80178 17.6102H2.69674C2.6806 17.0102 2.43602 16.4402 2.01479 16.0208C1.81278 15.8083 1.57027 15.64 1.30214 15.5264C1.03402 15.4128 0.745948 15.3563 0.455622 15.3604H0V15.003H2.80178V17.6102ZM2.80178 37.3908V39.9979H0V39.6405H0.455622C0.745948 39.6446 1.03402 39.5881 1.30214 39.4745C1.57027 39.3609 1.81278 39.1927 2.01479 38.9801C2.43655 38.5611 2.68122 37.9909 2.69674 37.3908H2.80178ZM4.97337 15.003V39.9979H2.69674V15.003H4.97337ZM9.4571 15.003C10.4279 14.9899 11.3936 15.147 12.3121 15.4674C13.1114 15.7395 13.8409 16.1904 14.447 16.7871C15.0531 17.3838 15.5206 18.1112 15.8151 18.916C16.1432 19.8121 16.3038 20.7629 16.2885 21.7192C16.288 22.863 16.0175 23.99 15.5 25.0049C15.0013 26.0197 14.2683 26.8957 13.3639 27.5578C12.4823 28.2065 11.4201 28.5505 10.3328 28.5394C10.7308 28.7068 11.1627 29.0446 11.6302 29.5572C12.0632 30.029 12.472 30.5232 12.855 31.038C13.4862 31.9669 14.0409 32.7645 14.5192 33.431C14.9975 34.0975 15.4822 34.7509 15.9734 35.3913C16.4665 36.0347 16.8866 36.5468 17.2337 36.9278C17.671 37.4219 18.1389 37.8868 18.6346 38.3196C19.0914 38.7188 19.6058 39.0438 20.1598 39.2832C20.743 39.5285 21.3691 39.6501 22 39.6405V39.9979H20.0769C19.1255 40.0211 18.1791 39.8509 17.2929 39.4973C16.5705 39.2024 15.9015 38.7866 15.3136 38.2668C14.8261 37.8296 14.3694 37.358 13.9467 36.8555C13.8767 36.76 13.6844 36.4865 13.3698 36.0352C13.0552 35.5838 12.6775 35.042 12.2367 34.4096C11.8047 33.7793 11.3787 33.1546 10.9586 32.5353C10.5385 31.9161 10.1765 31.3863 9.87278 30.946C9.56805 30.5057 9.39349 30.2509 9.34616 30.1785C8.90564 29.587 8.41349 29.0374 7.87574 28.5364C7.40925 28.0641 6.78166 27.7939 6.12426 27.7824V27.4251C6.84813 27.4492 7.46696 27.4492 7.98077 27.4251C8.65363 27.3918 9.32209 27.2959 9.97781 27.1386C10.7249 26.9606 11.4206 26.6063 12.0089 26.1042C12.6391 25.5814 13.1179 24.7837 13.4453 23.7111C13.5256 23.3884 13.5839 23.0604 13.6198 22.7295C13.6662 22.3444 13.6781 21.9557 13.6553 21.5684C13.6317 19.9499 13.2288 18.6587 12.4467 17.6946C11.6647 16.7306 10.6198 16.2129 9.31213 16.1415C8.65828 16.0942 7.98669 16.0766 7.29734 16.0887C6.60799 16.1008 5.79635 16.1063 4.86243 16.1053C4.84015 16.0028 4.81099 15.9021 4.77515 15.8037C4.71746 15.6258 4.62722 15.3513 4.51331 15L9.4571 15.003ZM4.8713 37.3908H4.97633C4.9726 37.6883 5.02988 37.9834 5.14451 38.2571C5.25914 38.5308 5.4286 38.777 5.64201 38.9801C5.84797 39.1924 6.09371 39.3602 6.36462 39.4737C6.63553 39.5871 6.92607 39.6439 7.21894 39.6405H7.63905V39.9979H4.86834L4.8713 37.3908Z" fill="white"/>
<path d="M25.568 20.8209H25.4991C25.4949 20.5658 25.4409 20.3142 25.3402 20.081C25.2394 19.8479 25.0941 19.638 24.9128 19.464C24.525 19.1005 24.0138 18.9083 23.4896 18.9287H23V18.5714H26.0194L25.568 20.8209ZM25.568 37.7068L26.0194 39.991H23V39.6336H23.4852C23.9995 39.6484 24.4988 39.4547 24.8755 39.0942C25.2523 38.7338 25.4762 38.2355 25.4991 37.7068H25.568ZM27.7197 18.5714V39.9925H25.4991V18.5714H27.7197ZM37.0213 18.5714V19.678H27.6464V18.5714H37.0213ZM35.4251 28.7467V29.8172H27.6464V28.7467H35.4251ZM37.0564 38.8858L36.9875 39.9925H27.6464V38.8858H37.0564ZM39 34.895L37.0945 40H31.8179L32.9993 38.8934C34.1552 38.8934 35.0865 38.721 35.793 38.3762C36.4716 38.0532 37.0619 37.5621 37.5108 36.947C37.9658 36.3097 38.3488 35.6213 38.6526 34.895H39ZM37.0213 18.009V18.9378L33.0638 18.5805C33.8312 18.5764 34.5972 18.5109 35.3547 18.3845C35.9226 18.31 36.4825 18.1813 37.0271 18L37.0213 18.009ZM35.4251 26.7837V28.8176H33.6207V28.7467C34.1059 28.7467 34.465 28.5959 34.6966 28.2944C34.9284 27.995 35.0513 27.6217 35.044 27.239V26.7837H35.4251ZM35.4251 29.7463V31.7817H35.044V31.3173C35.0508 30.9347 34.928 30.5616 34.6966 30.2619C34.465 29.9604 34.1064 29.8096 33.6207 29.8096V29.7388L35.4251 29.7463ZM37.0271 19.571V22.0345H36.646V21.4993C36.6554 21.0251 36.4875 20.5654 36.177 20.2148C36.0172 20.0352 35.8208 19.894 35.602 19.8012C35.3831 19.7084 35.147 19.6664 34.9106 19.678V19.571H37.0271Z" fill="white"/>
<path d="M41 18.0075C41.2075 18.0783 41.5247 18.158 41.9529 18.2574C42.4271 18.36 42.9062 18.4369 43.3882 18.4877C43.8821 18.5457 44.3788 18.5758 44.876 18.578L41 18.9332V18.0075ZM60 18.578V19.6467H41V18.578H60ZM43.1119 19.5759V19.6467C42.8762 19.6466 42.6429 19.6955 42.4259 19.7905C42.2089 19.8854 42.0128 20.0243 41.8492 20.1991C41.5377 20.5413 41.3697 20.9961 41.3815 21.465V22.0354H41V19.5759H43.1119ZM49.4448 37.7181V39.9985H46.9192V39.6418H47.3343C47.862 39.6524 48.3723 39.4473 48.7535 39.0713C48.9399 38.8998 49.0911 38.6916 49.198 38.4589C49.305 38.2262 49.3655 37.9738 49.3761 37.7166L49.4448 37.7181ZM51.6254 18.7195V39.9985H49.3761V18.7195H51.6254ZM51.5216 37.7181H51.6254C51.6356 37.9754 51.696 38.2279 51.803 38.4606C51.9099 38.6934 52.0613 38.9016 52.248 39.0728C52.6291 39.4489 53.1394 39.6541 53.6672 39.6433H54.0486V40H51.5216V37.7181ZM59.9985 18V18.9257L56.1225 18.5705C56.6144 18.5686 57.1057 18.5385 57.5943 18.4802C58.1136 18.422 58.5921 18.3452 59.0295 18.2499C59.3569 18.1864 59.6808 18.1055 60 18.0075L59.9985 18ZM59.9985 19.5684V22.0279H59.6185V21.4574C59.6254 21.2198 59.5857 20.9831 59.5016 20.7617C59.4175 20.5403 59.2909 20.3386 59.1293 20.1688C58.9677 19.999 58.7744 19.8646 58.5612 19.7735C58.3479 19.6825 58.1189 19.6368 57.8881 19.6392V19.5684H59.9985Z" fill="white"/>
<path d="M72.988 18.0005C74.5816 17.9889 76.1647 18.2559 77.6637 18.7891C79.0776 19.2896 80.3794 20.0559 81.497 21.0452C82.5929 22.0178 83.471 23.2049 84.0751 24.5307C84.6854 25.943 85 27.4622 85 28.9971C85 30.5321 84.6854 32.0512 84.0751 33.4635C83.471 34.7893 82.5929 35.9764 81.497 36.949C80.3782 37.9416 79.0742 38.7104 77.6577 39.2126C76.1603 39.7438 74.5794 40.0102 72.988 39.9996C71.4013 40.0116 69.8252 39.7451 68.3333 39.2126C66.9238 38.7083 65.6263 37.9407 64.512 36.952C63.413 35.9824 62.5318 34.7972 61.9249 33.4724C61.3146 32.0601 61 30.541 61 29.006C61 27.471 61.3146 25.9519 61.9249 24.5396C62.5274 23.2103 63.4056 22.02 64.503 21.0452C65.6174 20.0569 66.9149 19.2899 68.3243 18.7861C69.8189 18.2523 71.3983 17.9862 72.988 18.0005ZM72.988 38.9463C74.6637 38.9671 76.3125 38.5308 77.7523 37.6858C79.1786 36.8398 80.346 35.6292 81.1306 34.1825C81.9595 32.6883 82.3739 30.9598 82.3739 28.9971C82.3739 27.0137 81.9595 25.2798 81.1306 23.7955C80.3428 22.3556 79.1758 21.1516 77.7523 20.3099C76.3112 19.4834 74.6735 19.0479 73.006 19.0479C71.3385 19.0479 69.7008 19.4834 68.2598 20.3099C66.8353 21.1522 65.6677 22.3573 64.8799 23.7984C64.0501 25.2778 63.6351 27.0117 63.6351 29.0001C63.6351 30.9618 64.0501 32.6903 64.8799 34.1855C65.6646 35.6322 66.8319 36.8427 68.2583 37.6887C69.6869 38.5299 71.3238 38.9651 72.988 38.9463Z" fill="white"/>
<path d="M90.6446 37.3427V39.5111H88V39.161H88.5956C89.1055 39.1726 89.5994 38.9842 89.97 38.6366C90.1519 38.4735 90.2963 38.2736 90.3937 38.0504C90.491 37.8272 90.539 37.5858 90.5344 37.3427H90.6446ZM90.5761 18L92.092 19.9586L92.1277 39.5111H90.5389V22.3767C90.5198 20.9143 90.4139 19.4544 90.2217 18.0044L90.5761 18ZM90.5761 18L110.108 36.2585L110.461 40L90.9275 21.6381L90.5761 18ZM92.1277 37.3501C92.1238 37.5947 92.1738 37.8372 92.2741 38.0606C92.3744 38.2841 92.5226 38.4832 92.7084 38.644C93.0762 38.9857 93.5626 39.1736 94.0665 39.1684H94.6621V39.5185H92.0205V37.3427L92.1277 37.3501ZM108.91 20.6942C108.903 20.4498 108.846 20.2092 108.744 19.9867C108.642 19.7642 108.495 19.5643 108.314 19.3988C107.942 19.0517 107.448 18.8634 106.938 18.8744H106.342V18.5244H108.981V20.6942H108.91ZM110.461 18.5244V35.5244C110.461 36.2698 110.484 36.9867 110.531 37.675C110.578 38.3634 110.66 39.1384 110.778 40H110.461L108.91 38.1462V18.5244H110.461ZM110.355 20.6942V18.5244H113V18.8744H112.404C111.901 18.8696 111.415 19.0574 111.048 19.3988C110.861 19.5595 110.713 19.7588 110.612 19.9826C110.512 20.2064 110.462 20.4493 110.466 20.6942H110.355Z" fill="white"/>
<path d="M70.8838 2.84576C76.8184 0.476732 83.4453 0.385026 89.4458 2.58889C95.4463 4.79276 100.381 9.13064 103.267 14.7394C106.153 20.3482 106.78 26.8166 105.022 32.8578C103.264 38.8989 99.2509 44.0698 93.7808 47.3416C88.3107 50.6135 81.7847 51.7464 75.5013 50.5149C69.2179 49.2834 63.6377 45.7778 59.871 40.6957C56.1043 35.6136 54.4273 29.3275 55.1736 23.0881C55.92 16.8488 59.0349 11.1136 63.8987 7.02375" stroke="white" stroke-miterlimit="10"/>
</svg>
