<svg width="957" height="285" viewBox="0 0 957 285" fill="none" xmlns="http://www.w3.org/2000/svg">
<g style="mix-blend-mode:screen; opacity: .4">
<path d="M1 44.3102C74.2889 44.3102 242.346 45.3102 200.231 110.825C147.587 192.718 321.003 199.784 383.969 153.226C446.936 106.668 315.841 40.5713 541.902 19.3706C767.962 -1.83015 682.286 -13.8855 786.542 35.9986C869.947 75.9058 934.355 79.229 955 79.229" stroke="#235F53" stroke-linecap="square"/>
<path d="M1 58.8477C71.611 58.8477 236.484 57.8585 196.449 120.292C146.482 198.552 316.674 204.39 379.311 161.21C442.374 118.461 318.312 55.9878 540.997 34.3259C763.682 12.6639 681.207 -2.62367 787.056 47.5956C871.734 87.771 936.59 91.1601 957 91.1601" stroke="#246255"/>
<path d="M1 73.963C61.3775 73.963 229.612 69.7391 191.654 129.412C144.363 204.439 311.34 209.08 373.651 169.056C436.814 129.893 319.778 70.7217 539.099 48.4904C758.421 26.2591 679.143 7.66832 786.59 58.475C872.547 99.1204 936.823 102.592 957 102.592" stroke="#256456"/>
<path d="M1 87.3333C65.4709 87.3333 222.74 80.6986 186.86 137.572C142.243 209.321 306.007 212.759 367.991 175.919C431.253 140.373 321.243 84.5414 537.202 61.7506C753.16 38.9597 677.079 17.0666 786.124 68.4364C873.36 109.532 937.056 113.085 957 113.085" stroke="#266758"/>
<path d="M1 102.774C64.4475 102.774 215.866 93.7281 182.064 147.77C140.122 216.198 300.672 218.429 362.33 184.797C425.692 152.891 322.707 100.434 535.303 77.0942C747.899 53.7546 675.014 28.565 785.657 80.4725C874.171 121.998 937.289 126.047 957 126.047" stroke="#27695A"/>
<path d="M1 117.904C58.3075 117.904 208.994 106.527 177.27 157.366C138.003 222.002 295.338 223.018 356.669 192.815C420.132 164.757 324.172 116.03 533.405 92.3123C742.638 68.5947 672.95 40.3094 785.191 92.3788C874.984 134.034 937.522 137.72 957 137.72" stroke="#286C5B"/>
<path d="M1 132.648C56.2608 132.648 202.123 117.962 172.476 166.255C135.884 227.935 290.005 227.75 351.01 200.586C414.573 176.01 325.639 130.384 531.509 105.983C737.379 81.5818 670.886 49.8375 784.726 102.74C875.797 145.062 937.755 148.848 957 148.848" stroke="#296E5D"/>
<path d="M1 146.225C54.2141 146.225 195.25 129.15 167.681 174.534C133.763 232.795 284.67 231.404 345.349 207.491C409.011 186.595 327.103 144.416 529.61 119.504C732.117 94.5924 668.821 59.601 784.259 112.958C876.609 155.644 937.988 159.919 957 159.919" stroke="#2A715F"/>
<path d="M1 163.065C50.0795 163.065 188.221 142.374 162.751 184.832C131.534 239.651 279.103 237.057 339.405 216.4C403.114 199.186 328.293 160.468 527.271 135.061C726.248 109.654 666.199 71.4432 783.136 125.224C876.687 168.249 936.237 172.376 955 172.376" stroke="#2B7360"/>
<path d="M1 176.842C52.1174 176.842 181.329 154.626 157.938 194.144C129.397 245.501 273.735 241.711 333.702 224.31C397.502 210.774 329.711 175.527 525.301 149.641C720.891 123.756 664.043 82.3606 782.561 136.532C877.376 179.869 936.472 184.088 955 184.088" stroke="#2C7662"/>
<path d="M1 193.09C50.1687 193.09 174.803 166.899 153.446 203.465C127.527 251.346 268.929 246.368 328.688 232.218C392.712 222.35 331.821 190.579 524.427 164.234C717.033 137.888 663.274 93.3505 783.624 147.876C879.904 191.496 938.669 195.805 957 195.805" stroke="#2D7864"/>
<path d="M1 207.969C45.0408 207.969 167.9 177.58 148.626 211.483C125.388 256.265 263.554 250.056 322.977 239.05C387.092 232.78 333.241 204.238 522.455 177.219C711.669 150.2 661.116 102.152 783.049 157.473C880.595 201.73 938.905 206.163 957 206.163" stroke="#2E7B65"/>
<path d="M1 224.116C41.9625 224.116 160.999 190.314 143.807 221.53C123.248 263.185 258.179 255.73 317.267 247.902C381.474 245.267 334.66 219.984 520.482 192.282C706.305 164.579 658.958 112.978 782.473 169.109C881.285 214.014 939.141 218.573 957 218.573" stroke="#2F7E67"/>
<path d="M1 243.291C33.7654 243.291 154.101 202.652 138.989 230.884C121.111 269.017 252.806 260.385 311.56 255.812C375.857 256.843 336.08 235.061 518.511 206.933C700.943 178.806 656.801 124.13 781.898 180.546C881.975 225.679 939.377 230.322 957 230.322" stroke="#308069"/>
<path d="M1 255.234C39.9035 255.234 137.162 220.603 134.174 239.969C118.973 274.932 247.435 265.041 305.854 263.685C370.242 268.396 337.499 249.916 516.54 221.099C695.582 192.283 654.644 134.017 781.322 191.246C882.665 237.03 939.612 241.8 957 241.8" stroke="#31836A"/>
<path d="M1 268.947C38.2677 268.947 140.309 224.871 129.359 247.419C116.836 278.889 242.064 267.827 300.149 269.704C364.628 278.058 338.917 263.054 514.57 233.809C690.223 204.564 652.488 143.232 780.747 200.756C883.355 246.775 939.848 251.629 957 251.629" stroke="#32856C"/>
<path d="M1 275.548C37.8457 275.548 132.394 232.593 123.523 252.321C113.677 280.492 236.697 268.194 294.447 273.311C359.017 285.352 340.335 273.728 512.601 243.882C684.866 214.035 650.333 149.276 780.173 207.437C884.045 253.966 940.083 258.933 957 258.933" stroke="#32886E"/>
<path d="M1 282.995C34.7705 282.995 126.527 239.952 119.735 256.711C112.565 281.37 231.33 267.939 288.746 276.244C353.407 291.863 341.753 283.7 510.632 253.491C679.51 223.283 648.178 155.625 779.598 213.957C884.734 260.623 940.319 265.663 957 265.663" stroke="#338A70"/>
</g>
</svg>
